<svg viewBox="0 0 320 360" height="360" width="320"><g><path xmlns="http://www.w3.org/2000/svg" d="M297.491 100.645c-12.426-21.51-112.674-79.355-137.491-79.355-24.817 0-125.028 57.845-137.491 79.355-11.591 20.02-11.591 138.726 0 158.746 12.463 21.474 112.674 79.319 137.491 79.319 24.817 0 125.064-57.845 137.491-79.355 11.591-20.02 11.591-138.69 0-158.71zM309.481 93.705c-14.461-24.998-119.469-86.295-149.481-86.295-30.012 0-135.02 61.297-149.481 86.295-14.025 24.199-14.025 148.391 0 172.59 14.461 24.998 119.469 86.295 149.481 86.295 30.012 0 135.02-61.297 149.481-86.259 14.025-24.235 14.025-148.427 0-172.626zM300.906 261.353c-12.753 22.055-115.472 81.317-140.906 81.318-25.434 0-128.153-59.298-140.906-81.354-11.881-20.529-11.881-142.178 0-162.707 12.753-22.019 115.472-81.281 140.906-81.281 25.434 0 128.153 59.298 140.906 81.318 11.881 20.529 11.881 142.178 0 162.706z" fill="#233565" fill-rule="nonzero" stroke="none" stroke-width="1" stroke-linecap="butt" stroke-linejoin="miter" stroke-miterlimit="10" stroke-dasharray="" stroke-dashoffset="0" font-family="none" font-weight="none" font-size="none" text-anchor="none" style="mix-blend-mode: normal" data-fill-palette-color="tertiary"></path></g><g transform="matrix(1,0,0,1,50.36320210405236,90)"><svg viewBox="0 0 219.27359579189527 180" height="180" width="219.27359579189527"><g><svg viewBox="0 0 219.27359579189527 180" height="180" width="219.27359579189527"><g><svg viewBox="0 0 224 183.87986868362515" height="180" width="219.27359579189527"><g transform="matrix(1,0,0,1,0,111.63039251138365)"><svg viewBox="0 0 224 72.24947617224151" height="72.24947617224151" width="224"><g id="textblocktransform"><svg viewBox="0 0 224 72.24947617224151" height="72.24947617224151" width="224" id="textblock"><g><svg viewBox="0 0 224 49.90603213094877" height="49.90603213094877" width="224"><g transform="matrix(1,0,0,1,0,0)"><svg width="224" viewBox="3 -36.150001525878906 164.92999267578125 36.75" height="49.90603213094877" data-palette-color="#ffffff"><path d="M3 0L3-26.3 6.1-26.3 6.65-23.25 6.95-23.25Q8.9-26.9 12.95-26.9L12.95-26.9Q17.2-26.9 18.55-23.1L18.55-23.1Q19.55-24.95 21.28-25.93 23-26.9 24.95-26.9L24.95-26.9Q31.15-26.9 31.15-18.95L31.15-18.95 31.15 0 27.05 0 27.05-18.65Q27.05-21.2 26.15-22.23 25.25-23.25 23.65-23.25L23.65-23.25Q21.75-23.25 20.45-21.3 19.15-19.35 19.15-16.05L19.15-16.05 19.15 0 15.05 0 15.05-18.65Q15.05-21.2 14.15-22.23 13.25-23.25 11.65-23.25L11.65-23.25Q9.75-23.25 8.43-21.3 7.1-19.35 7.1-16.05L7.1-16.05 7.1 0 3 0ZM45.55 0.6Q40.9 0.6 38.52-2.78 36.15-6.15 36.15-13.15L36.15-13.15Q36.15-20.15 38.52-23.53 40.9-26.9 45.55-26.9L45.55-26.9Q50.2-26.9 52.57-23.53 54.95-20.15 54.95-13.15L54.95-13.15Q54.95-6.15 52.57-2.78 50.2 0.6 45.55 0.6L45.55 0.6ZM45.55-3.05Q50.65-3.05 50.65-12.2L50.65-12.2 50.65-14.1Q50.65-23.25 45.55-23.25L45.55-23.25Q40.45-23.25 40.45-14.1L40.45-14.1 40.45-12.2Q40.45-3.05 45.55-3.05L45.55-3.05ZM66.45 0.6Q63.3 0.6 61.62-1.28 59.95-3.15 59.95-7.35L59.95-7.35 59.95-26.3 64.05-26.3 64.05-7.65Q64.05-5.1 65-4.08 65.95-3.05 67.75-3.05L67.75-3.05Q69.8-3.05 71.22-5 72.65-6.95 72.65-10.25L72.65-10.25 72.65-26.3 76.75-26.3 76.75 0 73.65 0 73.1-3.05 72.8-3.05Q70.75 0.6 66.45 0.6L66.45 0.6ZM82.74 0L82.74-26.3 85.84-26.3 86.39-23.25 86.69-23.25Q88.74-26.9 93.04-26.9L93.04-26.9Q96.19-26.9 97.87-25.03 99.54-23.15 99.54-18.95L99.54-18.95 99.54 0 95.44 0 95.44-18.65Q95.44-21.2 94.49-22.23 93.54-23.25 91.74-23.25L91.74-23.25Q89.69-23.25 88.27-21.3 86.84-19.35 86.84-16.05L86.84-16.05 86.84 0 82.74 0ZM110.19 0.5Q107.69 0.5 106.59-1.23 105.49-2.95 105.49-5.55L105.49-5.55 105.49-22.65 103.24-22.65 103.24-26.3 105.49-26.3 106.39-33.6 109.59-33.6 109.59-26.3 113.14-26.3 113.14-22.65 109.59-22.65 109.59-5.45Q109.59-3.05 111.94-3.05L111.94-3.05 113.14-3.05 113.14-0.2Q112.59 0.1 111.77 0.3 110.94 0.5 110.19 0.5L110.19 0.5ZM122.54 0.6Q119.84 0.6 117.74-1 115.64-2.6 115.64-6.8L115.64-6.8Q115.64-11.85 119.06-13.73 122.49-15.6 128.94-15.6L128.94-15.6 128.94-19Q128.94-21.05 128.04-22.15 127.14-23.25 124.79-23.25L124.79-23.25Q122.64-23.25 121.69-22.05 120.74-20.85 120.74-19.1L120.74-19.1 120.74-18.5 116.69-18.5Q116.64-18.8 116.64-19.6L116.64-19.6Q116.64-23.1 118.94-25 121.24-26.9 125.09-26.9L125.09-26.9Q129.04-26.9 131.04-25 133.04-23.1 133.04-19.55L133.04-19.55 133.04-4.8Q133.04-3.95 133.44-3.5 133.84-3.05 134.44-3.05L134.44-3.05 136.04-3.05 136.04-0.2Q134.94 0.4 133.34 0.4L133.34 0.4Q131.74 0.4 130.66-0.48 129.59-1.35 129.19-2.85L129.19-2.85 128.94-2.85Q127.94-1.2 126.26-0.3 124.59 0.6 122.54 0.6L122.54 0.6ZM123.49-3.05Q124.84-3.05 126.09-3.8 127.34-4.55 128.14-6.03 128.94-7.5 128.94-9.55L128.94-9.55 128.94-11.95Q124.44-11.95 122.19-10.93 119.94-9.9 119.94-7.05L119.94-7.05Q119.94-4.9 120.81-3.98 121.69-3.05 123.49-3.05L123.49-3.05ZM140.39 0L140.39-26.3 144.49-26.3 144.49 0 140.39 0ZM140.29-31.4L140.29-36.15 144.54-36.15 144.54-31.4 140.29-31.4ZM151.13 0L151.13-26.3 154.23-26.3 154.78-23.25 155.08-23.25Q157.13-26.9 161.43-26.9L161.43-26.9Q164.58-26.9 166.26-25.03 167.93-23.15 167.93-18.95L167.93-18.95 167.93 0 163.83 0 163.83-18.65Q163.83-21.2 162.88-22.23 161.93-23.25 160.13-23.25L160.13-23.25Q158.08-23.25 156.66-21.3 155.23-19.35 155.23-16.05L155.23-16.05 155.23 0 151.13 0Z" opacity="1" transform="matrix(1,0,0,1,0,0)" fill="#ffffff" class="wordmark-text-0" data-fill-palette-color="quaternary" id="text-0"></path></svg></g></svg></g><g transform="matrix(1,0,0,1,0,61.687648572294634)"><svg viewBox="0 0 224 10.561827599946874" height="10.561827599946874" width="224"><g transform="matrix(1,0,0,1,0,0)"><svg width="224" viewBox="4.650000095367432 -35.099998474121094 752.8099975585938 35.5" height="10.561827599946874" data-palette-color="#ffffff"><path d="M16.25-32.25Q23.1-32.25 26.75-28.35 30.4-24.45 30.4-17.15L30.4-17.15Q30.4-8.7 26.45-4.2 22.5 0.3 15.1 0.3L15.1 0.3Q13.05 0.3 10.13 0.23 7.2 0.15 4.7 0L4.7 0 4.65 0 4.9-9.65 4.65-32.05 4.7-32.05 16.25-32.25ZM15.75-3.05Q20.85-3.05 23.58-6.38 26.3-9.7 26.3-16.3L26.3-16.3Q26.3-28.9 15.95-28.9L15.95-28.9Q12.8-28.9 8.7-28.7L8.7-28.7 8.5-10 8.65-3.35Q10.2-3.2 12.38-3.13 14.55-3.05 15.75-3.05L15.75-3.05ZM36.35 0L36.55-9.7 36.4-22.65 40.25-23 40.15-10.05 40.25 0 36.35 0ZM38.4-33.15Q39.4-33.15 40-32.55 40.6-31.95 40.6-30.9L40.6-30.9Q40.6-29.8 39.97-29.15 39.35-28.5 38.25-28.5L38.25-28.5Q37.2-28.5 36.62-29.1 36.05-29.7 36.05-30.8L36.05-30.8Q36.05-31.85 36.67-32.5 37.3-33.15 38.4-33.15L38.4-33.15ZM54.65-23.25Q57.5-23.25 60.15-22.15L60.15-22.15 59.6-18.9 59-18.75Q56.5-20.4 54.2-20.4L54.2-20.4Q52.5-20.4 51.45-19.45 50.4-18.5 50.4-17.15L50.4-17.15Q50.4-15.8 51.47-14.98 52.55-14.15 54.8-13.1L54.8-13.1Q56.75-12.2 57.92-11.48 59.1-10.75 59.95-9.55 60.8-8.35 60.8-6.6L60.8-6.6Q60.8-4.75 59.85-3.15 58.9-1.55 57.05-0.58 55.2 0.4 52.65 0.4L52.65 0.4Q49.15 0.4 46-1.25L46-1.25 46.5-4.65 46.95-4.95Q48.35-3.75 49.97-3.1 51.6-2.45 53.05-2.45L53.05-2.45Q54.9-2.45 56.05-3.48 57.2-4.5 57.2-5.9L57.2-5.9Q57.2-7.25 56.12-8.08 55.05-8.9 52.8-9.95L52.8-9.95Q50.85-10.85 49.65-11.58 48.45-12.3 47.6-13.55 46.75-14.8 46.75-16.65L46.75-16.65Q46.75-19.55 48.87-21.4 51-23.25 54.65-23.25L54.65-23.25ZM75.14-23.3Q76.69-23.3 78.37-22.93 80.04-22.55 81.29-21.95L81.29-21.95 80.59-18.5 80.14-18.35Q77.54-20.05 74.99-20.05L74.99-20.05Q72.04-20.05 70.39-17.8 68.74-15.55 68.74-11.5L68.74-11.5Q68.74-7.45 70.47-5.13 72.19-2.8 75.24-2.8L75.24-2.8Q76.59-2.8 78.07-3.25 79.54-3.7 80.84-4.5L80.84-4.5 81.29-4.25 80.84-0.9Q77.79 0.4 74.74 0.4L74.74 0.4Q70.19 0.4 67.59-2.73 64.99-5.85 64.99-11.3L64.99-11.3Q64.99-16.85 67.72-20.08 70.44-23.3 75.14-23.3L75.14-23.3ZM94.69-23.3Q99.34-23.3 101.92-20.28 104.49-17.25 104.49-11.75L104.49-11.75Q104.49-5.95 101.79-2.78 99.09 0.4 94.09 0.4L94.09 0.4Q89.39 0.4 86.82-2.63 84.24-5.65 84.24-11.15L84.24-11.15Q84.24-16.95 86.97-20.13 89.69-23.3 94.69-23.3L94.69-23.3ZM94.44-20.5Q91.29-20.5 89.64-18.35 87.99-16.2 87.99-12.05L87.99-12.05Q87.99-7.25 89.62-4.85 91.24-2.45 94.34-2.45L94.34-2.45Q97.49-2.45 99.14-4.55 100.79-6.65 100.79-10.85L100.79-10.85Q100.79-15.6 99.17-18.05 97.54-20.5 94.44-20.5L94.44-20.5ZM110.69-23.05L111.34-20 116.29-3.95 116.59-3.95 122.39-19.8 123.19-22.9 126.74-22.9 118.34 0 114.09 0 106.99-22.8 110.69-23.05ZM146.59-11.65L132.24-11.6 132.24-11.5Q132.24-7.3 134.14-5.05 136.04-2.8 139.54-2.8L139.54-2.8Q141.29-2.8 143.04-3.38 144.79-3.95 146.24-5L146.24-5 146.64-4.7 146.04-1.3Q142.54 0.4 139.04 0.4L139.04 0.4Q134.14 0.4 131.34-2.73 128.54-5.85 128.54-11.3L128.54-11.3Q128.54-16.8 131.34-20.05 134.14-23.3 138.89-23.3L138.89-23.3Q142.89-23.3 145.09-21.03 147.29-18.75 147.29-14.7L147.29-14.7Q147.29-13.35 147.09-12.15L147.09-12.15 146.59-11.65ZM138.89-20.5Q136.39-20.5 134.71-18.88 133.04-17.25 132.49-14.3L132.49-14.3 143.54-14.5 143.64-15.2Q143.64-17.75 142.41-19.13 141.19-20.5 138.89-20.5L138.89-20.5ZM163.98-22.95Q164.58-22.95 165.28-22.85L165.28-22.85 165.28-19 164.83-18.85Q163.98-19.1 162.98-19.1L162.98-19.1Q161.33-19.1 159.96-17.78 158.58-16.45 157.23-13.55L157.23-13.55 157.18-10.05 157.43 0 153.48 0 153.73-9.7 153.53-22.65 157.28-23 157.23-18.3 157.53-18.3Q158.93-20.8 160.63-21.88 162.33-22.95 163.98-22.95L163.98-22.95ZM207.13-32.05L210.28 0 206.68 0 205.93-9.75 204.23-25.7 203.88-25.7 194.98-3.7 191.68-3.7 183.23-25.7 182.83-25.7 181.13-10.05 180.28 0 176.88 0 180.23-32.05 184.78-32.05 186.43-27.15 193.38-8.9 193.68-8.9 200.98-27.45 202.63-32.05 207.13-32.05ZM224.88-23.3Q229.53-23.3 232.1-20.28 234.68-17.25 234.68-11.75L234.68-11.75Q234.68-5.95 231.98-2.78 229.28 0.4 224.28 0.4L224.28 0.4Q219.58 0.4 217-2.63 214.43-5.65 214.43-11.15L214.43-11.15Q214.43-16.95 217.15-20.13 219.88-23.3 224.88-23.3L224.88-23.3ZM224.63-20.5Q221.48-20.5 219.83-18.35 218.18-16.2 218.18-12.05L218.18-12.05Q218.18-7.25 219.8-4.85 221.43-2.45 224.53-2.45L224.53-2.45Q227.68-2.45 229.33-4.55 230.98-6.65 230.98-10.85L230.98-10.85Q230.98-15.6 229.35-18.05 227.73-20.5 224.63-20.5L224.63-20.5ZM260.97-3.3L261.37-2.95 260.97-0.7Q259.52 0.15 258.12 0.3L258.12 0.3Q256.67 0.1 255.8-0.73 254.92-1.55 254.57-3.2L254.57-3.2 254.27-3.2Q251.27-0.5 248.07 0.3L248.07 0.3Q244.37 0.3 242.45-1.45 240.52-3.2 240.57-6.45L240.57-6.45 240.62-12.8 240.47-22.65 244.47-23 244.17-7.4Q244.17-5.35 245.15-4.2 246.12-3.05 248.02-3.05L248.02-3.05Q251.12-3.05 254.22-6.05L254.22-6.05 254.22-22.65 258.02-23 257.77-4.9Q257.77-3.85 258.1-3.43 258.42-3 259.22-3L259.22-3Q260.02-3 260.97-3.3L260.97-3.3ZM280.07 0L280.32-15.55Q280.37-17.6 279.37-18.75 278.37-19.9 276.42-19.9L276.42-19.9Q273.27-19.9 269.62-16.35L269.62-16.35 269.62-10.05 269.82 0 265.87 0 266.12-9.7 265.92-22.65 269.67-23 269.67-19.65 269.97-19.65Q273.07-22.4 276.32-23.2L276.32-23.2Q280.07-23.2 282.05-21.45 284.02-19.7 283.97-16.45L283.97-16.45 283.87-9.95 284.07 0 280.07 0ZM298.87-3.05Q300.52-3.05 302.47-4.05L302.47-4.05 302.92-3.75 302.52-1.15Q299.82 0.1 297.52 0.3L297.52 0.3Q294.67-0.25 293.42-1.8 292.17-3.35 292.17-6.3L292.17-6.3 292.32-9.85 292.27-20.2 289.12-20.2 288.92-20.5 289.17-22.85 292.22-22.85 292.22-26.55 295.67-28.05 296.07-27.7 295.97-22.85 302.77-22.85 302.97-22.55 302.72-20.2 295.97-20.2 295.72-6.65Q295.67-4.65 296.42-3.85 297.17-3.05 298.87-3.05L298.87-3.05ZM315.17-23.3Q318.42-23.3 320.29-21.7 322.17-20.1 322.17-17.3L322.17-17.3Q322.17-16.45 321.87-11.15L321.87-11.15Q321.57-5.85 321.57-4.95L321.57-4.95Q321.57-3.85 321.92-3.43 322.27-3 323.12-3L323.12-3Q323.87-3 324.82-3.3L324.82-3.3 325.22-2.95 324.82-0.7Q323.37 0.15 321.97 0.3L321.97 0.3Q320.42 0.15 319.49-0.8 318.57-1.75 318.52-3.4L318.52-3.4 318.17-3.4Q315.47-0.65 312.82 0.35L312.82 0.35Q309.47 0.35 307.59-1.33 305.72-3 305.72-5.9L305.72-5.9Q305.72-8.1 306.89-9.4 308.07-10.7 310.37-11.25L310.37-11.25 318.47-13.15 318.52-16.4Q318.52-18.35 317.49-19.4 316.47-20.45 314.57-20.45L314.57-20.45Q312.87-20.45 311.17-19.65 309.47-18.85 307.52-17.15L307.52-17.15 307.12-17.35 306.62-20.2Q310.77-23.3 315.17-23.3L315.17-23.3ZM318.42-10.6L311.17-8.85Q310.17-8.55 309.72-8.03 309.27-7.5 309.27-6.45L309.27-6.45Q309.27-4.8 310.19-3.88 311.12-2.95 312.67-2.95L312.67-2.95Q315.42-2.95 318.27-6.5L318.27-6.5 318.42-10.6ZM330.76 0L330.96-9.7 330.81-22.65 334.66-23 334.56-10.05 334.66 0 330.76 0ZM332.81-33.15Q333.81-33.15 334.41-32.55 335.01-31.95 335.01-30.9L335.01-30.9Q335.01-29.8 334.39-29.15 333.76-28.5 332.66-28.5L332.66-28.5Q331.61-28.5 331.04-29.1 330.46-29.7 330.46-30.8L330.46-30.8Q330.46-31.85 331.09-32.5 331.71-33.15 332.81-33.15L332.81-33.15ZM357.01 0L357.26-15.55Q357.31-17.6 356.31-18.75 355.31-19.9 353.36-19.9L353.36-19.9Q350.21-19.9 346.56-16.35L346.56-16.35 346.56-10.05 346.76 0 342.81 0 343.06-9.7 342.86-22.65 346.61-23 346.61-19.65 346.91-19.65Q350.01-22.4 353.26-23.2L353.26-23.2Q357.01-23.2 358.99-21.45 360.96-19.7 360.91-16.45L360.91-16.45 360.81-9.95 361.01 0 357.01 0ZM389.96-32.05L400.66 0 396.56 0 395.81-3.2 394.01-8.7 386.81-8.85 380.31-8.7 378.36-3.4 377.56 0 373.56 0 385.31-32.05 389.96-32.05ZM387.16-12L392.91-12.1 387.71-27.9 387.36-27.9 381.56-12.1 387.16-12ZM422.35-35.1L422-10.05 422.15-4.9Q422.2-3.85 422.5-3.43 422.8-3 423.6-3L423.6-3Q424.4-3 425.3-3.3L425.3-3.3 425.7-2.95 425.3-0.7Q423.95 0.15 422.5 0.3L422.5 0.3Q420.95 0.15 420.08-0.75 419.2-1.65 419-3.2L419-3.2 418.65-3.2Q417.15-1.9 415.95-1.13 414.75-0.35 413.2 0.25L413.2 0.25Q408.25 0.25 405.6-2.78 402.95-5.8 402.95-11.4L402.95-11.4Q402.95-17.05 405.9-20.18 408.85-23.3 414.05-23.3L414.05-23.3Q416.4-23.3 418.45-22.8L418.45-22.8 418.4-34.75 422.35-35.1ZM413.6-20.5Q410.4-20.5 408.55-18.32 406.7-16.15 406.7-12.05L406.7-12.05Q406.7-7.8 408.38-5.45 410.05-3.1 413-3.1L413-3.1Q414.4-3.1 415.73-3.8 417.05-4.5 418.5-6.15L418.5-6.15 418.6-9.75 418.45-19.25Q415.8-20.5 413.6-20.5L413.6-20.5ZM431.4-23.05L432.05-20 437-3.95 437.3-3.95 443.1-19.8 443.9-22.9 447.45-22.9 439.05 0 434.8 0 427.7-22.8 431.4-23.05ZM467.3-11.65L452.95-11.6 452.95-11.5Q452.95-7.3 454.85-5.05 456.75-2.8 460.25-2.8L460.25-2.8Q462-2.8 463.75-3.38 465.5-3.95 466.95-5L466.95-5 467.35-4.7 466.75-1.3Q463.25 0.4 459.75 0.4L459.75 0.4Q454.85 0.4 452.05-2.73 449.25-5.85 449.25-11.3L449.25-11.3Q449.25-16.8 452.05-20.05 454.85-23.3 459.6-23.3L459.6-23.3Q463.6-23.3 465.8-21.03 468-18.75 468-14.7L468-14.7Q468-13.35 467.8-12.15L467.8-12.15 467.3-11.65ZM459.6-20.5Q457.1-20.5 455.42-18.88 453.75-17.25 453.2-14.3L453.2-14.3 464.25-14.5 464.35-15.2Q464.35-17.75 463.12-19.13 461.9-20.5 459.6-20.5L459.6-20.5ZM488.4 0L488.65-15.55Q488.7-17.6 487.7-18.75 486.7-19.9 484.75-19.9L484.75-19.9Q481.6-19.9 477.95-16.35L477.95-16.35 477.95-10.05 478.15 0 474.2 0 474.45-9.7 474.25-22.65 478-23 478-19.65 478.3-19.65Q481.4-22.4 484.65-23.2L484.65-23.2Q488.4-23.2 490.37-21.45 492.35-19.7 492.3-16.45L492.3-16.45 492.2-9.95 492.4 0 488.4 0ZM507.19-3.05Q508.84-3.05 510.79-4.05L510.79-4.05 511.24-3.75 510.84-1.15Q508.14 0.1 505.84 0.3L505.84 0.3Q502.99-0.25 501.74-1.8 500.49-3.35 500.49-6.3L500.49-6.3 500.64-9.85 500.59-20.2 497.44-20.2 497.24-20.5 497.49-22.85 500.54-22.85 500.54-26.55 503.99-28.05 504.39-27.7 504.29-22.85 511.09-22.85 511.29-22.55 511.04-20.2 504.29-20.2 504.04-6.65Q503.99-4.65 504.74-3.85 505.49-3.05 507.19-3.05L507.19-3.05ZM536.04-3.3L536.44-2.95 536.04-0.7Q534.59 0.15 533.19 0.3L533.19 0.3Q531.74 0.1 530.87-0.73 529.99-1.55 529.64-3.2L529.64-3.2 529.34-3.2Q526.34-0.5 523.14 0.3L523.14 0.3Q519.44 0.3 517.52-1.45 515.59-3.2 515.64-6.45L515.64-6.45 515.69-12.8 515.54-22.65 519.54-23 519.24-7.4Q519.24-5.35 520.22-4.2 521.19-3.05 523.09-3.05L523.09-3.05Q526.19-3.05 529.29-6.05L529.29-6.05 529.29-22.65 533.09-23 532.84-4.9Q532.84-3.85 533.17-3.43 533.49-3 534.29-3L534.29-3Q535.09-3 536.04-3.3L536.04-3.3ZM551.44-22.95Q552.04-22.95 552.74-22.85L552.74-22.85 552.74-19 552.29-18.85Q551.44-19.1 550.44-19.1L550.44-19.1Q548.79-19.1 547.41-17.78 546.04-16.45 544.69-13.55L544.69-13.55 544.64-10.05 544.89 0 540.94 0 541.19-9.7 540.99-22.65 544.74-23 544.69-18.3 544.99-18.3Q546.39-20.8 548.09-21.88 549.79-22.95 551.44-22.95L551.44-22.95ZM573.18-11.65L558.83-11.6 558.83-11.5Q558.83-7.3 560.74-5.05 562.63-2.8 566.13-2.8L566.13-2.8Q567.88-2.8 569.63-3.38 571.38-3.95 572.83-5L572.83-5 573.24-4.7 572.63-1.3Q569.13 0.4 565.63 0.4L565.63 0.4Q560.74 0.4 557.93-2.73 555.13-5.85 555.13-11.3L555.13-11.3Q555.13-16.8 557.93-20.05 560.74-23.3 565.49-23.3L565.49-23.3Q569.49-23.3 571.68-21.03 573.88-18.75 573.88-14.7L573.88-14.7Q573.88-13.35 573.68-12.15L573.68-12.15 573.18-11.65ZM565.49-20.5Q562.99-20.5 561.31-18.88 559.63-17.25 559.08-14.3L559.08-14.3 570.13-14.5 570.24-15.2Q570.24-17.75 569.01-19.13 567.78-20.5 565.49-20.5L565.49-20.5ZM586.33-23.25Q589.18-23.25 591.83-22.15L591.83-22.15 591.28-18.9 590.68-18.75Q588.18-20.4 585.88-20.4L585.88-20.4Q584.18-20.4 583.13-19.45 582.08-18.5 582.08-17.15L582.08-17.15Q582.08-15.8 583.16-14.98 584.23-14.15 586.48-13.1L586.48-13.1Q588.43-12.2 589.61-11.48 590.78-10.75 591.63-9.55 592.48-8.35 592.48-6.6L592.48-6.6Q592.48-4.75 591.53-3.15 590.58-1.55 588.73-0.58 586.88 0.4 584.33 0.4L584.33 0.4Q580.83 0.4 577.68-1.25L577.68-1.25 578.18-4.65 578.63-4.95Q580.03-3.75 581.66-3.1 583.28-2.45 584.73-2.45L584.73-2.45Q586.58-2.45 587.73-3.48 588.88-4.5 588.88-5.9L588.88-5.9Q588.88-7.25 587.81-8.08 586.73-8.9 584.48-9.95L584.48-9.95Q582.53-10.85 581.33-11.58 580.13-12.3 579.28-13.55 578.43-14.8 578.43-16.65L578.43-16.65Q578.43-19.55 580.56-21.4 582.68-23.25 586.33-23.25L586.33-23.25ZM607.48-23.05L608.03-20.1 612.23-4.3 612.53-4.3 617.38-19.9 618.13-22.9 622.03-22.9 622.58-20.1 626.78-4.3 627.08-4.3 631.93-19.9 632.68-22.9 636.13-22.9 628.58 0 624.83 0 620.03-17.75 619.68-17.75 614.13 0 610.23 0 603.83-22.8 607.48-23.05ZM640.57 0L640.77-9.7 640.62-22.65 644.47-23 644.37-10.05 644.47 0 640.57 0ZM642.62-33.15Q643.62-33.15 644.22-32.55 644.82-31.95 644.82-30.9L644.82-30.9Q644.82-29.8 644.2-29.15 643.57-28.5 642.47-28.5L642.47-28.5Q641.42-28.5 640.85-29.1 640.27-29.7 640.27-30.8L640.27-30.8Q640.27-31.85 640.9-32.5 641.52-33.15 642.62-33.15L642.62-33.15ZM659.82-3.05Q661.47-3.05 663.42-4.05L663.42-4.05 663.87-3.75 663.47-1.15Q660.77 0.1 658.47 0.3L658.47 0.3Q655.62-0.25 654.37-1.8 653.12-3.35 653.12-6.3L653.12-6.3 653.27-9.85 653.22-20.2 650.07-20.2 649.87-20.5 650.12-22.85 653.17-22.85 653.17-26.55 656.62-28.05 657.02-27.7 656.92-22.85 663.72-22.85 663.92-22.55 663.67-20.2 656.92-20.2 656.67-6.65Q656.62-4.65 657.37-3.85 658.12-3.05 659.82-3.05L659.82-3.05ZM682.97 0L683.22-15.55Q683.27-17.6 682.27-18.75 681.27-19.9 679.32-19.9L679.32-19.9Q676.02-19.9 672.57-16.35L672.57-16.35 672.47-10.05 672.72 0 668.77 0 669.07-9.75 668.82-34.75 672.77-35.1 672.57-19.65 672.87-19.65Q675.97-22.4 679.22-23.2L679.22-23.2Q683.02-23.2 684.97-21.45 686.92-19.7 686.87-16.45L686.87-16.45 686.77-9.95 686.97 0 682.97 0ZM726.41-32.05L726.36-15.75 726.31-12.15Q726.41-6.25 723.21-2.95 720.01 0.35 714.11 0.35L714.11 0.35Q708.46 0.35 705.44-2.8 702.41-5.95 702.51-11.7L702.51-11.7 702.56-16.05 702.51-32.05 706.46-32.05 706.31-12.2Q706.26-7.7 708.31-5.43 710.36-3.15 714.41-3.15L714.41-3.15Q718.46-3.15 720.56-5.3 722.66-7.45 722.61-11.7L722.61-11.7 722.41-32.05 726.41-32.05ZM740.36-23.25Q743.21-23.25 745.86-22.15L745.86-22.15 745.31-18.9 744.71-18.75Q742.21-20.4 739.91-20.4L739.91-20.4Q738.21-20.4 737.16-19.45 736.11-18.5 736.11-17.15L736.11-17.15Q736.11-15.8 737.19-14.98 738.26-14.15 740.51-13.1L740.51-13.1Q742.46-12.2 743.64-11.48 744.81-10.75 745.66-9.55 746.51-8.35 746.51-6.6L746.51-6.6Q746.51-4.75 745.56-3.15 744.61-1.55 742.76-0.58 740.91 0.4 738.36 0.4L738.36 0.4Q734.86 0.4 731.71-1.25L731.71-1.25 732.21-4.65 732.66-4.95Q734.06-3.75 735.69-3.1 737.31-2.45 738.76-2.45L738.76-2.45Q740.61-2.45 741.76-3.48 742.91-4.5 742.91-5.9L742.91-5.9Q742.91-7.25 741.84-8.08 740.76-8.9 738.51-9.95L738.51-9.95Q736.56-10.85 735.36-11.58 734.16-12.3 733.31-13.55 732.46-14.8 732.46-16.65L732.46-16.65Q732.46-19.55 734.59-21.4 736.71-23.25 740.36-23.25L740.36-23.25ZM756.96-33L757.46-32.5 756.31-10.9 753.96-10.65 753.56-11.1 753.51-32.35 753.91-32.85 756.96-33ZM754.61-4.4Q755.61-4.4 756.18-3.8 756.76-3.2 756.76-2.15L756.76-2.15Q756.76-1.05 756.13-0.4 755.51 0.25 754.46 0.25L754.46 0.25Q753.36 0.25 752.78-0.35 752.21-0.95 752.21-2.05L752.21-2.05Q752.21-3.1 752.86-3.75 753.51-4.4 754.61-4.4L754.61-4.4Z" opacity="1" transform="matrix(1,0,0,1,0,0)" fill="#ffffff" class="slogan-text-1" data-fill-palette-color="quaternary" id="text-1"></path></svg></g></svg></g></svg></g></svg></g><g transform="matrix(1,0,0,1,62.07560720762606,0)"><svg viewBox="0 0 99.84878558474789 99.84877607003779" height="99.84877607003779" width="99.84878558474789"><g><svg xmlns="http://www.w3.org/2000/svg" xmlns:xlink="http://www.w3.org/1999/xlink" version="1.1" x="0" y="0" viewBox="8.975000381469727 9.968000411987305 80.06400299072266 80.06399536132812" style="enable-background:new 0 0 100 100;" xml:space="preserve" height="99.84877607003779" width="99.84878558474789" class="icon-icon-0" data-fill-palette-color="quaternary" id="icon-0"><path d="M26.191 61.095h44.478c0.552 0 1-0.448 1-1s-0.448-1-1-1h-1.835v-4.569l2.281 2.292c0.196 0.196 0.452 0.294 0.709 0.294 0.255 0 0.51-0.097 0.706-0.291 0.391-0.39 0.393-1.023 0.003-1.415l-3.699-3.717v-1.949l2.281 2.293c0.195 0.196 0.452 0.294 0.709 0.294 0.255 0 0.51-0.097 0.706-0.291 0.391-0.39 0.393-1.023 0.003-1.415l-3.699-3.717v-1.949l2.281 2.292c0.196 0.196 0.452 0.294 0.709 0.294 0.255 0 0.51-0.097 0.706-0.291 0.391-0.39 0.393-1.023 0.003-1.415l-3.99-4.009c-0.188-0.188-0.443-0.294-0.709-0.294s-0.521 0.106-0.709 0.294l-3.99 4.009c-0.389 0.392-0.388 1.025 0.003 1.415 0.392 0.389 1.024 0.388 1.415-0.003l2.281-2.292v1.949l-3.699 3.717c-0.39 0.392-0.388 1.025 0.003 1.415 0.393 0.39 1.026 0.388 1.415-0.003l2.281-2.293v1.949l-3.699 3.717c-0.389 0.392-0.388 1.025 0.003 1.415 0.392 0.389 1.024 0.388 1.415-0.003l2.281-2.292v4.569H61.95L45.339 29.496c-0.354-0.631-1.39-0.631-1.744 0L26.984 59.095h-0.793c-0.552 0-1 0.448-1 1S25.639 61.095 26.191 61.095zM44.467 32.029l4.855 8.652-0.946 1.147-1.187-1.439c-0.19-0.23-0.473-0.364-0.771-0.364h0c-0.299 0-0.582 0.134-0.771 0.364l-1.183 1.437-1.183-1.437c-0.38-0.461-1.164-0.461-1.544 0l-1.183 1.437-0.942-1.144L44.467 32.029zM38.561 42.552l1.22 1.482c0.38 0.461 1.164 0.461 1.544 0l1.183-1.437 1.183 1.437c0.38 0.461 1.164 0.461 1.544 0l1.184-1.438 1.187 1.438c0.19 0.23 0.473 0.364 0.771 0.364s0.582-0.133 0.771-0.364l1.224-1.484 9.285 16.544h-30.38L38.561 42.552z" fill="#ffffff" data-fill-palette-color="quaternary"></path><path d="M60.074 40.217c2.903 0 5.543-1.829 6.569-4.55 0.139-0.368 0.049-0.783-0.229-1.06-0.278-0.278-0.693-0.368-1.06-0.229-0.576 0.217-1.171 0.328-1.77 0.328-2.771 0-5.026-2.254-5.026-5.026 0-0.598 0.11-1.193 0.328-1.77 0.138-0.368 0.049-0.782-0.229-1.06-0.278-0.277-0.694-0.368-1.06-0.229-2.721 1.026-4.55 3.666-4.55 6.569C53.048 37.065 56.2 40.217 60.074 40.217zM56.56 29.609c0 0.023 0 0.047 0 0.07 0 3.897 3.171 7.072 7.096 7.025-0.928 0.944-2.214 1.512-3.581 1.512-2.771 0-5.026-2.254-5.026-5.026C55.048 31.824 55.616 30.538 56.56 29.609z" fill="#ffffff" data-fill-palette-color="quaternary"></path><path d="M45.418 88.545c0.958 0.959 2.233 1.487 3.589 1.487s2.63-0.528 3.589-1.487l34.956-34.956c0.959-0.958 1.487-2.233 1.487-3.589s-0.528-2.63-1.487-3.589L52.596 11.455c-0.958-0.959-2.233-1.487-3.589-1.487s-2.63 0.528-3.589 1.487L10.462 46.411C9.503 47.37 8.975 48.645 8.975 50s0.528 2.63 1.487 3.589L45.418 88.545zM11.876 47.825l34.956-34.956c0.6-0.6 1.387-0.899 2.175-0.899s1.575 0.3 2.175 0.899l34.956 34.956c1.199 1.199 1.199 3.15 0 4.35L51.182 87.131c-1.199 1.199-3.15 1.199-4.35 0L11.876 52.175C10.677 50.976 10.677 49.024 11.876 47.825z" fill="#ffffff" data-fill-palette-color="quaternary"></path></svg></g></svg></g><g></g></svg></g></svg></g></svg></g></svg>